<svg xmlns="http://www.w3.org/2000/svg" version="1.1" xmlns:xlink="http://www.w3.org/1999/xlink" viewBox="0 0 26.69612978236393 7.007448652068941"><g transform="matrix(0.7138744302885268,0,0,0.7138744302885268,8.094166141149296,2.789240418479655)"><rect width="29.50476131856667" height="29.50476131856667" x="-7.392684714004557" y="-13.75152689951771" fill="#ffffff"></rect><g transform="matrix(1,0,0,1,0,0)" clip-path="url(#SvgjsClipPath48553)"><g clip-path="url(#SvgjsClipPath48548dc3e6e36-0adc-4072-b05d-63b37d71c460)"><path d=" M -2.2255726590722604 0.0003040206245419341 L -4.338221891618661 0.0003040206245419341 C -4.480688231310802 0.26427819451104795 -4.564538798661023 0.5558767356870284 -4.584053177801818 0.8552063390193572 L -1.908733861246115 0.8552063390193572 C -1.9349183183469476 0.5467910005328678 -2.0444346222355034 0.25129138767381254 -2.2255726590722604 0.0003040206245419341 Z" fill="#1192dc" transform="matrix(1,0,0,1,0,0)" fill-rule="nonzero"></path></g><g clip-path="url(#SvgjsClipPath48548dc3e6e36-0adc-4072-b05d-63b37d71c460)"><path d=" M -4.129183276484838 -0.31184781273672113 L -2.5133522772161303 -0.31184781273672113 C -2.8224284122993772 -0.5739047833471081 -3.214491886759065 -0.7177416691264296 -3.619710239151967 -0.7177389353956618 C -3.6471289812715364 -0.7177389353956618 -3.674079026944617 -0.7149267567167313 -3.701497769064189 -0.7135206673772676 C -3.861980972566749 -0.6000914779165326 -4.005919888698025 -0.464907202711598 -4.129183276484838 -0.31184781273672113 Z" fill="#1192dc" transform="matrix(1,0,0,1,0,0)" fill-rule="nonzero"></path></g><g clip-path="url(#SvgjsClipPath48548dc3e6e36-0adc-4072-b05d-63b37d71c460)"><path d=" M -4.113716293750724 2.3341779759134593 C -3.993913466325381 2.478937187571338 -3.8552768004841385 2.607012561074474 -3.701497769064189 2.7149938386852672 C -3.674079026944617 2.716399928024737 -3.6471289812715364 2.719212106703668 -3.619710239151967 2.719212106703668 C -3.2256168307450674 2.719269860304475 -2.843588586743704 2.583262838658921 -2.5381931888800175 2.3341779759134593 Z" fill="#1192dc" transform="matrix(1,0,0,1,0,0)" fill-rule="nonzero"></path></g><g clip-path="url(#SvgjsClipPath48548dc3e6e36-0adc-4072-b05d-63b37d71c460)"><path d=" M -2.1880769433531904 -0.31184781273672113 L -0.8548699013169769 -0.31184781273672113 C -1.2527642035000488 -0.8095300952982702 -1.8555426323938433 -1.099060383722432 -2.4927296335706406 -1.0985547981674761 C -2.7832225931664514 -1.0987165501666127 -3.070556929869765 -1.0382965243653905 -3.336383237249734 -0.9211531931716216 C -2.8949435055394 -0.8561215562107138 -2.4894042583277485 -0.6409374658535094 -2.1880769433531904 -0.31184781273672113 Z" fill="#202020" transform="matrix(1,0,0,1,0,0)" fill-rule="nonzero"></path></g><g clip-path="url(#SvgjsClipPath48548dc3e6e36-0adc-4072-b05d-63b37d71c460)"><path d=" M -2.2072934976592165 2.3341779759134593 C -2.5062593142428757 2.651679096375074 -2.9035611299158823 2.85908187296913 -3.33497714791027 2.92286071270287 C -3.069135608326465 3.0399300767174493 -2.7818005680548357 3.1002704351744894 -2.491323544231177 3.100027969475482 C -1.86330357055789 3.1006769795387363 -1.2681078595941262 2.8195932247078725 -0.8696338393813661 2.3341779759134593 Z" fill="#202020" transform="matrix(1,0,0,1,0,0)" fill-rule="nonzero"></path></g><g clip-path="url(#SvgjsClipPath48548dc3e6e36-0adc-4072-b05d-63b37d71c460)"><path d=" M -1.9549004612252192 0.0003040206245419341 C -1.797933008470578 0.2598202031160268 -1.7044695249281578 0.5527366876201092 -1.6821191293689837 0.8552063390193572 L -0.4002343482232469 0.8552063390193572 C -0.41974872736404034 0.5558767356870284 -0.503599294714264 0.26427819451104795 -0.6460656344064044 0.0003040206245419341 Z" fill="#1192dc" transform="matrix(1,0,0,1,0,0)" fill-rule="nonzero"></path></g><g clip-path="url(#SvgjsClipPath48548dc3e6e36-0adc-4072-b05d-63b37d71c460)"><path d=" M -0.4014060893394653 1.1673581723806232 L -1.6830565222619533 1.1673581723806232 C -1.708967507102464 1.4707027574048328 -1.8063830273766857 1.763591794865755 -1.9673209170571595 2.022026142552193 L -0.6589547866848298 2.022026142552193 C -0.5121719356438836 1.7591720704918825 -0.42429276464270593 1.4675475603542103 -0.4014060893394653 1.1673581723806201 Z" fill="#1192dc" transform="matrix(1,0,0,1,0,0)" fill-rule="nonzero"></path></g><g clip-path="url(#SvgjsClipPath48548dc3e6e36-0adc-4072-b05d-63b37d71c460)"><path d=" M -4.583115784908842 1.1673581723806232 C -4.559825970162177 1.4675035769831672 -4.471887483907029 1.7590596309581934 -4.325332739340228 2.022026142552193 L -2.239633552466913 2.022026142552193 C -2.0534874900048896 1.7725846351078753 -1.938918263631808 1.4770867789674074 -1.9082651647996212 1.1673581723806201 Z" fill="#1192dc" transform="matrix(1,0,0,1,0,0)" fill-rule="nonzero"></path></g></g><g><path d=" M 0.13916015625 0.017578125000000222 L 0.438720703125 0.017578125000000222 L 0.850341796875 0.5874023437500002 L 1.241455078125 0.017578125000000222 L 1.532958984375 0.017578125000000222 L 1.532958984375 1.1059570312500002 L 1.1103515625 1.1059570312500002 L 1.1103515625 0.5500488281250002 L 0.70458984375 1.1198730468750002 L 0.30029296875 0.5500488281250002 L 0.30029296875 1.1059570312500002 L 0.13916015625 1.1059570312500002 L 0.13916015625 0.017578125000000222 M 2.1123046875 0.2922363281250002 L 1.986328125 0.017578125000000222 L 2.432373046875 0.017578125000000222 L 2.965576171875 1.1066894531250002 L 2.4873046875 1.1066894531250002 L 2.40673828125 0.9323730468750002 L 1.9775390625 0.9323730468750002 L 1.897705078125 1.1066894531250002 L 1.71240234375 1.1066894531250002 L 2.1123046875 0.2922363281250002 M 2.329833984375 0.7646484375000002 L 2.192138671875 0.4658203125000002 L 2.05517578125 0.7646484375000002 L 2.329833984375 0.7646484375000002 M 3.114990234375 0.017578125000000222 L 4.034912109375 0.017578125000000222 L 4.034912109375 0.18530273437500022 L 3.5390625 0.18530273437500022 L 3.538330078125 0.4790039062500002 L 3.917724609375 0.4790039062500002 L 3.917724609375 0.6467285156250002 L 3.538330078125 0.6467285156250002 L 3.538330078125 0.9382324218750002 L 4.034912109375 0.9382324218750002 L 4.034912109375 1.1059570312500002 L 3.114990234375 1.1059570312500002 L 3.114990234375 0.017578125000000222 M 4.25244140625 0.017578125000000222 L 4.676513671875 0.017578125000000222 L 4.67578125 0.9382324218750002 L 5.091796875 0.9382324218750002 L 5.091796875 1.1059570312500002 L 4.25244140625 1.1059570312500002 L 4.25244140625 0.017578125000000222 M 5.20166015625 0.5595703125000002 Q 5.20166015625 0.4357910156250002 5.2412109375 0.3328857421875002 Q 5.28076171875 0.22998046875000022 5.359130859375 0.15600585937500022 Q 5.4375 0.08203125000000022 5.5546875 0.04101562500000022 Q 5.671875 2.220446049250313e-16 5.8271484375 2.220446049250313e-16 Q 5.982421875 2.220446049250313e-16 6.099609375 0.04101562500000022 Q 6.216796875 0.08203125000000022 6.295166015625 0.15600585937500022 Q 6.37353515625 0.22998046875000022 6.4130859375 0.3328857421875002 Q 6.45263671875 0.4357910156250002 6.45263671875 0.5595703125000002 Q 6.45263671875 0.6848144531250002 6.4130859375 0.7888183593750002 Q 6.37353515625 0.8928222656250002 6.295166015625 0.9667968750000002 Q 6.216796875 1.0407714843750002 6.099609375 1.0817871093750002 Q 5.982421875 1.1228027343750002 5.8271484375 1.1228027343750002 Q 5.671875 1.1228027343750002 5.5546875 1.0817871093750002 Q 5.4375 1.0407714843750002 5.359130859375 0.9667968750000002 Q 5.28076171875 0.8928222656250002 5.2412109375 0.7888183593750002 Q 5.20166015625 0.6848144531250002 5.20166015625 0.5595703125000002 M 5.8271484375 0.9711914062500002 Q 5.87109375 0.9711914062500002 5.90478515625 0.9558105468750002 Q 5.9384765625 0.9404296875000002 5.961181640625 0.8957519531250002 Q 5.98388671875 0.8510742187500002 5.99560546875 0.7705078125000002 Q 6.00732421875 0.6899414062500002 6.00732421875 0.5595703125000002 Q 6.00732421875 0.4306640625000002 5.99560546875 0.3508300781250002 Q 5.98388671875 0.2709960937500002 5.961181640625 0.22705078125000022 Q 5.9384765625 0.18310546875000022 5.90478515625 0.16772460937500022 Q 5.87109375 0.15234375000000022 5.8271484375 0.15234375000000022 Q 5.783203125 0.15234375000000022 5.7491455078125 0.16772460937500022 Q 5.715087890625 0.18310546875000022 5.6923828125 0.22705078125000022 Q 5.669677734375 0.2709960937500002 5.657958984375 0.3508300781250002 Q 5.646240234375 0.4306640625000002 5.646240234375 0.5595703125000002 Q 5.646240234375 0.6899414062500002 5.657958984375 0.7705078125000002 Q 5.669677734375 0.8510742187500002 5.6923828125 0.8957519531250002 Q 5.715087890625 0.9404296875000002 5.7491455078125 0.9558105468750002 Q 5.783203125 0.9711914062500002 5.8271484375 0.9711914062500002 M 7.13671875 0.8642578125000002 Q 7.21435546875 0.9038085937500002 7.29931640625 0.9235839843750002 Q 7.38427734375 0.9433593750000002 7.45751953125 0.9433593750000002 Q 7.541748046875 0.9433593750000002 7.5809326171875 0.9191894531250002 Q 7.6201171875 0.8950195312500002 7.6201171875 0.8532714843750002 Q 7.6201171875 0.8400878906250002 7.6153564453125 0.8261718750000002 Q 7.610595703125 0.8122558593750002 7.5970458984375 0.7987060546875002 Q 7.58349609375 0.7851562500000002 7.5596923828125 0.7716064453125002 Q 7.535888671875 0.7580566406250002 7.497802734375 0.7448730468750002 L 7.36669921875 0.7001953125000002 Q 7.22607421875 0.6518554687500002 7.155029296875 0.5694580078125002 Q 7.083984375 0.4870605468750002 7.083984375 0.3735351562500002 Q 7.083984375 0.3002929687500002 7.11474609375 0.23254394531250022 Q 7.1455078125 0.16479492187500022 7.207763671875 0.11315917968750022 Q 7.27001953125 0.06152343750000022 7.3648681640625 0.030761718750000222 Q 7.459716796875 2.220446049250313e-16 7.587158203125 2.220446049250313e-16 Q 7.650146484375 2.220446049250313e-16 7.7080078125 0.007324218750000222 Q 7.765869140625 0.014648437500000222 7.8167724609375 0.026367187500000222 Q 7.86767578125 0.03808593750000022 7.91015625 0.05310058593750022 Q 7.95263671875 0.06811523437500022 7.98486328125 0.08276367187500022 L 7.90576171875 0.22558593750000022 Q 7.88232421875 0.21093750000000022 7.8563232421875 0.19995117187500022 Q 7.830322265625 0.18896484375000022 7.8043212890625 0.18164062500000022 Q 7.7783203125 0.17431640625000022 7.75341796875 0.17065429687500022 Q 7.728515625 0.16699218750000022 7.7080078125 0.16699218750000022 Q 7.6728515625 0.16699218750000022 7.646484375 0.17614746093750022 Q 7.6201171875 0.18530273437500022 7.6021728515625 0.20031738281250022 Q 7.584228515625 0.21533203125000022 7.5750732421875 0.23400878906250022 Q 7.56591796875 0.2526855468750002 7.56591796875 0.2709960937500002 Q 7.56591796875 0.2871093750000002 7.5736083984375 0.3021240234375002 Q 7.581298828125 0.3171386718750002 7.5999755859375 0.3314208984375002 Q 7.61865234375 0.3457031250000002 7.6490478515625 0.3599853515625002 Q 7.679443359375 0.3742675781250002 7.724853515625 0.3896484375000002 L 7.812744140625 0.4189453125000002 Q 7.95556640625 0.4665527343750002 8.031005859375 0.5500488281250002 Q 8.1064453125 0.6335449218750002 8.1064453125 0.7521972656250002 Q 8.1064453125 0.8327636718750002 8.0701904296875 0.9008789062500002 Q 8.033935546875 0.9689941406250002 7.962158203125 1.0184326171875002 Q 7.890380859375 1.0678710937500002 7.7838134765625 1.0953369140625002 Q 7.67724609375 1.1228027343750002 7.53662109375 1.1228027343750002 Q 7.46923828125 1.1228027343750002 7.4066162109375 1.1158447265625002 Q 7.343994140625 1.1088867187500002 7.2843017578125 1.0949707031250002 Q 7.224609375 1.0810546875000002 7.166748046875 1.0598144531250002 Q 7.10888671875 1.0385742187500002 7.051025390625 1.0100097656250002 L 7.13671875 0.8642578125000002 M 8.24560546875 0.5595703125000002 Q 8.24560546875 0.4357910156250002 8.28515625 0.3328857421875002 Q 8.32470703125 0.22998046875000022 8.403076171875 0.15600585937500022 Q 8.4814453125 0.08203125000000022 8.5986328125 0.04101562500000022 Q 8.7158203125 2.220446049250313e-16 8.87109375 2.220446049250313e-16 Q 9.0263671875 2.220446049250313e-16 9.1435546875 0.04101562500000022 Q 9.2607421875 0.08203125000000022 9.339111328125 0.15600585937500022 Q 9.41748046875 0.22998046875000022 9.45703125 0.3328857421875002 Q 9.49658203125 0.4357910156250002 9.49658203125 0.5595703125000002 Q 9.49658203125 0.6848144531250002 9.45703125 0.7888183593750002 Q 9.41748046875 0.8928222656250002 9.339111328125 0.9667968750000002 Q 9.2607421875 1.0407714843750002 9.1435546875 1.0817871093750002 Q 9.0263671875 1.1228027343750002 8.87109375 1.1228027343750002 Q 8.7158203125 1.1228027343750002 8.5986328125 1.0817871093750002 Q 8.4814453125 1.0407714843750002 8.403076171875 0.9667968750000002 Q 8.32470703125 0.8928222656250002 8.28515625 0.7888183593750002 Q 8.24560546875 0.6848144531250002 8.24560546875 0.5595703125000002 M 8.87109375 0.9711914062500002 Q 8.9150390625 0.9711914062500002 8.94873046875 0.9558105468750002 Q 8.982421875 0.9404296875000002 9.005126953125 0.8957519531250002 Q 9.02783203125 0.8510742187500002 9.03955078125 0.7705078125000002 Q 9.05126953125 0.6899414062500002 9.05126953125 0.5595703125000002 Q 9.05126953125 0.4306640625000002 9.03955078125 0.3508300781250002 Q 9.02783203125 0.2709960937500002 9.005126953125 0.22705078125000022 Q 8.982421875 0.18310546875000022 8.94873046875 0.16772460937500022 Q 8.9150390625 0.15234375000000022 8.87109375 0.15234375000000022 Q 8.8271484375 0.15234375000000022 8.7930908203125 0.16772460937500022 Q 8.759033203125 0.18310546875000022 8.736328125 0.22705078125000022 Q 8.713623046875 0.2709960937500002 8.701904296875 0.3508300781250002 Q 8.690185546875 0.4306640625000002 8.690185546875 0.5595703125000002 Q 8.690185546875 0.6899414062500002 8.701904296875 0.7705078125000002 Q 8.713623046875 0.8510742187500002 8.736328125 0.8957519531250002 Q 8.759033203125 0.9404296875000002 8.7930908203125 0.9558105468750002 Q 8.8271484375 0.9711914062500002 8.87109375 0.9711914062500002 M 9.711181640625 0.017578125000000222 L 10.13525390625 0.017578125000000222 L 10.134521484375 0.9382324218750002 L 10.550537109375 0.9382324218750002 L 10.550537109375 1.1059570312500002 L 9.711181640625 1.1059570312500002 L 9.711181640625 0.017578125000000222 M 11.025146484375 0.2922363281250002 L 10.899169921875 0.017578125000000222 L 11.34521484375 0.017578125000000222 L 11.87841796875 1.1066894531250002 L 11.400146484375 1.1066894531250002 L 11.319580078125 0.9323730468750002 L 10.890380859375 0.9323730468750002 L 10.810546875 1.1066894531250002 L 10.625244140625 1.1066894531250002 L 11.025146484375 0.2922363281250002 M 11.24267578125 0.7646484375000002 L 11.10498046875 0.4658203125000002 L 10.968017578125 0.7646484375000002 L 11.24267578125 0.7646484375000002 M 12.02783203125 0.017578125000000222 L 12.655517578125 0.017578125000000222 Q 12.777099609375 0.017578125000000222 12.8682861328125 0.04321289062500022 Q 12.95947265625 0.06884765625000022 13.0206298828125 0.11499023437500022 Q 13.081787109375 0.16113281250000022 13.112548828125 0.22558593750000022 Q 13.143310546875 0.2900390625000002 13.143310546875 0.3676757812500002 Q 13.143310546875 0.4636230468750002 13.097900390625 0.5379638671875002 Q 13.052490234375 0.6123046875000002 12.963134765625 0.6562500000000002 L 13.191650390625 1.1066894531250002 L 12.71337890625 1.1066894531250002 L 12.54052734375 0.7111816406250002 L 12.451171875 0.7111816406250002 L 12.451171875 1.1059570312500002 L 12.02783203125 1.1059570312500002 L 12.02783203125 0.017578125000000222 M 12.476806640625 0.5786132812500002 Q 12.52880859375 0.5786132812500002 12.56982421875 0.5639648437500002 Q 12.61083984375 0.5493164062500002 12.639404296875 0.5225830078125002 Q 12.66796875 0.4958496093750002 12.683349609375 0.4588623046875002 Q 12.69873046875 0.4218750000000002 12.69873046875 0.3779296875000002 Q 12.69873046875 0.3339843750000002 12.683349609375 0.2969970703125002 Q 12.66796875 0.2600097656250002 12.639404296875 0.23327636718750022 Q 12.61083984375 0.20654296875000022 12.56982421875 0.19189453125000022 Q 12.52880859375 0.17724609375000022 12.476806640625 0.17724609375000022 L 12.451904296875 0.17724609375000022 L 12.451171875 0.5786132812500002 L 12.476806640625 0.5786132812500002" fill="#202020" fill-rule="nonzero"></path></g><g><path d=" M 0.378 1.5689575195312497 Q 0.36675 1.5562075195312497 0.35175 1.5460825195312498 Q 0.33675 1.5359575195312498 0.318 1.5284575195312498 Q 0.29925 1.5209575195312497 0.277875 1.5164575195312497 Q 0.2565 1.5119575195312498 0.2325 1.5119575195312498 Q 0.16275 1.5119575195312498 0.130125 1.5385825195312497 Q 0.0975 1.5652075195312496 0.0975 1.6109575195312498 Q 0.0975 1.6424575195312496 0.112875 1.6604575195312496 Q 0.12825 1.6784575195312497 0.16125 1.6897075195312496 Q 0.19425 1.7009575195312496 0.24525 1.7129575195312496 Q 0.30225 1.7249575195312497 0.3435 1.7414575195312496 Q 0.38475 1.7579575195312498 0.40725 1.7860825195312497 Q 0.42975 1.8142075195312497 0.42975 1.8622075195312497 Q 0.42975 1.8989575195312498 0.41550000000000004 1.9259575195312497 Q 0.40125 1.9529575195312496 0.37575000000000003 1.9709575195312496 Q 0.35025 1.9889575195312497 0.315 1.9975825195312498 Q 0.27975 2.00620751953125 0.23775000000000002 2.00620751953125 Q 0.1965 2.00620751953125 0.15862500000000002 1.9975825195312498 Q 0.12075 1.9889575195312497 0.08700000000000001 1.9720825195312497 Q 0.05325 1.9552075195312497 0.024 1.9289575195312496 L 0.05025 1.8862075195312498 Q 0.0645 1.9012075195312497 0.084375 1.9143325195312497 Q 0.10425 1.9274575195312498 0.128625 1.9379575195312497 Q 0.153 1.9484575195312497 0.181125 1.9540825195312497 Q 0.20925 1.9597075195312497 0.23925000000000002 1.9597075195312497 Q 0.303 1.9597075195312497 0.338625 1.9364575195312497 Q 0.37425 1.9132075195312497 0.37425 1.8674575195312497 Q 0.37425 1.8344575195312496 0.35625 1.8145825195312497 Q 0.33825 1.7947075195312496 0.30225 1.7819575195312498 Q 0.26625 1.7692075195312498 0.21375 1.7572075195312498 Q 0.15825 1.7444575195312497 0.12 1.7287075195312496 Q 0.08175 1.7129575195312496 0.062625 1.6870825195312498 Q 0.043500000000000004 1.6612075195312497 0.043500000000000004 1.6184575195312496 Q 0.043500000000000004 1.5689575195312497 0.067875 1.5348325195312498 Q 0.09225 1.5007075195312498 0.135 1.4830825195312496 Q 0.17775 1.4654575195312498 0.23325 1.4654575195312498 Q 0.2685 1.4654575195312498 0.298875 1.4725825195312496 Q 0.32925 1.4797075195312497 0.355125 1.4932075195312495 Q 0.381 1.5067075195312496 0.4035 1.5269575195312497 L 0.378 1.5689575195312497 M 0.7376209716796874 2.00545751953125 Q 0.6813709716796874 2.00545751953125 0.6356209716796875 1.9829575195312497 Q 0.5898709716796875 1.9604575195312497 0.5568709716796875 1.9218325195312498 Q 0.5238709716796874 1.8832075195312497 0.5058709716796874 1.8348325195312496 Q 0.4878709716796874 1.7864575195312498 0.4878709716796874 1.7354575195312498 Q 0.4878709716796874 1.6822075195312496 0.5066209716796874 1.6338325195312497 Q 0.5253709716796875 1.5854575195312497 0.5594959716796875 1.5475825195312498 Q 0.5936209716796874 1.5097075195312497 0.6393709716796874 1.4875825195312498 Q 0.6851209716796874 1.4654575195312498 0.7383709716796875 1.4654575195312498 Q 0.7946209716796875 1.4654575195312498 0.8403709716796874 1.4887075195312498 Q 0.8861209716796874 1.5119575195312498 0.9187459716796875 1.5509575195312497 Q 0.9513709716796874 1.5899575195312496 0.9693709716796874 1.6379575195312497 Q 0.9873709716796875 1.6859575195312497 0.9873709716796875 1.7362075195312496 Q 0.9873709716796875 1.7894575195312497 0.9686209716796874 1.8378325195312497 Q 0.9498709716796874 1.8862075195312498 0.9161209716796874 1.9240825195312496 Q 0.8823709716796875 1.9619575195312497 0.8366209716796875 1.9837075195312497 Q 0.7908709716796875 2.00545751953125 0.7376209716796874 2.00545751953125 M 0.5403709716796874 1.7354575195312498 Q 0.5403709716796874 1.7789575195312497 0.5546209716796875 1.8190825195312497 Q 0.5688709716796875 1.8592075195312496 0.5951209716796875 1.8903325195312497 Q 0.6213709716796875 1.9214575195312498 0.6577459716796874 1.9398325195312498 Q 0.6941209716796874 1.9582075195312496 0.7376209716796874 1.9582075195312496 Q 0.7833709716796875 1.9582075195312496 0.8197459716796874 1.9390825195312498 Q 0.8561209716796874 1.9199575195312497 0.8819959716796875 1.8880825195312496 Q 0.9078709716796874 1.8562075195312497 0.9213709716796874 1.8164575195312498 Q 0.9348709716796875 1.7767075195312496 0.9348709716796875 1.7354575195312498 Q 0.9348709716796875 1.6919575195312497 0.9206209716796874 1.6522075195312498 Q 0.9063709716796875 1.6124575195312496 0.8797459716796874 1.5809575195312497 Q 0.8531209716796875 1.5494575195312497 0.8171209716796874 1.5314575195312496 Q 0.7811209716796874 1.5134575195312496 0.7376209716796874 1.5134575195312496 Q 0.6926209716796874 1.5134575195312496 0.6562459716796875 1.5322075195312497 Q 0.6198709716796874 1.5509575195312497 0.5939959716796874 1.5828325195312498 Q 0.5681209716796874 1.6147075195312497 0.5542459716796875 1.6544575195312496 Q 0.5403709716796874 1.6942075195312496 0.5403709716796874 1.7354575195312498 M 1.0874783935546872 2.0017075195312497 L 1.0874783935546872 1.4692075195312497 L 1.1399783935546872 1.4692075195312497 L 1.1399783935546872 1.9552075195312497 L 1.447478393554687 1.9552075195312497 L 1.447478393554687 2.0017075195312497 L 1.0874783935546872 2.0017075195312497 M 1.7193548583984373 2.00545751953125 Q 1.656354858398437 2.00545751953125 1.6128548583984372 1.9829575195312497 Q 1.5693548583984371 1.9604575195312497 1.5438548583984373 1.9225825195312498 Q 1.5183548583984372 1.8847075195312497 1.5067298583984372 1.8367075195312497 Q 1.4951048583984372 1.7887075195312496 1.4951048583984372 1.7377075195312497 L 1.4951048583984372 1.4692075195312497 L 1.5468548583984372 1.4692075195312497 L 1.5468548583984372 1.7377075195312497 Q 1.5468548583984372 1.7789575195312497 1.5554798583984373 1.8187075195312497 Q 1.5641048583984372 1.8584575195312496 1.5836048583984372 1.8899575195312497 Q 1.6031048583984373 1.9214575195312498 1.6361048583984372 1.9398325195312498 Q 1.6691048583984371 1.9582075195312496 1.7186048583984372 1.9582075195312496 Q 1.7696048583984372 1.9582075195312496 1.8029798583984373 1.9390825195312498 Q 1.8363548583984373 1.9199575195312497 1.855479858398437 1.8884575195312496 Q 1.8746048583984372 1.8569575195312498 1.8828548583984372 1.8175825195312496 Q 1.8911048583984371 1.7782075195312497 1.8911048583984371 1.7377075195312497 L 1.8911048583984371 1.4692075195312497 L 1.9436048583984373 1.4692075195312497 L 1.9436048583984373 1.7377075195312497 Q 1.9436048583984373 1.7909575195312497 1.9316048583984373 1.8397075195312498 Q 1.9196048583984373 1.8884575195312496 1.8929798583984372 1.9252075195312497 Q 1.866354858398437 1.9619575195312497 1.8236048583984372 1.9837075195312497 Q 1.7808548583984372 2.00545751953125 1.7193548583984373 2.00545751953125 M 2.034733520507812 1.7317075195312497 Q 2.034733520507812 1.6829575195312496 2.0516085205078123 1.6360825195312496 Q 2.068483520507812 1.5892075195312496 2.1007335205078124 1.5505825195312497 Q 2.1329835205078123 1.5119575195312498 2.1802335205078123 1.4890825195312498 Q 2.2274835205078123 1.4662075195312498 2.2874835205078123 1.4662075195312498 Q 2.3587335205078124 1.4662075195312498 2.409358520507812 1.4988325195312497 Q 2.459983520507812 1.5314575195312496 2.4839835205078122 1.5824575195312498 L 2.4427335205078125 1.6079575195312497 Q 2.4254835205078122 1.5727075195312497 2.399233520507812 1.5520825195312498 Q 2.3729835205078125 1.5314575195312496 2.3433585205078122 1.5224575195312497 Q 2.313733520507812 1.5134575195312496 2.2844835205078122 1.5134575195312496 Q 2.236483520507812 1.5134575195312496 2.199733520507812 1.5325825195312497 Q 2.162983520507812 1.5517075195312497 2.1378585205078124 1.5835825195312496 Q 2.1127335205078124 1.6154575195312497 2.0999835205078123 1.6548325195312497 Q 2.0872335205078123 1.6942075195312496 2.0872335205078123 1.7347075195312498 Q 2.0872335205078123 1.7789575195312497 2.1022335205078124 1.8194575195312497 Q 2.117233520507812 1.8599575195312497 2.1442335205078122 1.8910825195312497 Q 2.1712335205078124 1.9222075195312498 2.2076085205078124 1.9405825195312496 Q 2.243983520507812 1.9589575195312496 2.2867335205078123 1.9589575195312496 Q 2.316733520507812 1.9589575195312496 2.3482335205078124 1.9484575195312497 Q 2.3797335205078123 1.9379575195312497 2.407108520507812 1.9162075195312498 Q 2.434483520507812 1.8944575195312496 2.4509835205078123 1.8599575195312497 L 2.494483520507812 1.8824575195312496 Q 2.477983520507812 1.9222075195312498 2.4434835205078125 1.9499575195312497 Q 2.408983520507812 1.9777075195312497 2.3666085205078122 1.9919575195312498 Q 2.3242335205078124 2.00620751953125 2.283733520507812 2.00620751953125 Q 2.2289835205078123 2.00620751953125 2.1832335205078124 1.9825825195312496 Q 2.1374835205078124 1.9589575195312496 2.104108520507812 1.9195825195312497 Q 2.070733520507812 1.8802075195312498 2.0527335205078123 1.8310825195312497 Q 2.034733520507812 1.7819575195312498 2.034733520507812 1.7317075195312497 M 2.5855891113281246 2.0017075195312497 L 2.5855891113281246 1.4692075195312497 L 2.638089111328125 1.4692075195312497 L 2.638089111328125 2.0017075195312497 L 2.5855891113281246 2.0017075195312497 M 2.9872034912109373 2.00545751953125 Q 2.9309534912109374 2.00545751953125 2.8852034912109374 1.9829575195312497 Q 2.8394534912109375 1.9604575195312497 2.806453491210937 1.9218325195312498 Q 2.773453491210937 1.8832075195312497 2.7554534912109374 1.8348325195312496 Q 2.737453491210937 1.7864575195312498 2.737453491210937 1.7354575195312498 Q 2.737453491210937 1.6822075195312496 2.7562034912109374 1.6338325195312497 Q 2.7749534912109373 1.5854575195312497 2.8090784912109372 1.5475825195312498 Q 2.843203491210937 1.5097075195312497 2.888953491210937 1.4875825195312498 Q 2.9347034912109375 1.4654575195312498 2.9879534912109373 1.4654575195312498 Q 3.0442034912109373 1.4654575195312498 3.089953491210937 1.4887075195312498 Q 3.135703491210937 1.5119575195312498 3.1683284912109375 1.5509575195312497 Q 3.2009534912109374 1.5899575195312496 3.218953491210937 1.6379575195312497 Q 3.2369534912109375 1.6859575195312497 3.2369534912109375 1.7362075195312496 Q 3.2369534912109375 1.7894575195312497 3.218203491210937 1.8378325195312497 Q 3.1994534912109374 1.8862075195312498 3.1657034912109374 1.9240825195312496 Q 3.1319534912109375 1.9619575195312497 3.0862034912109375 1.9837075195312497 Q 3.040453491210937 2.00545751953125 2.9872034912109373 2.00545751953125 M 2.7899534912109374 1.7354575195312498 Q 2.7899534912109374 1.7789575195312497 2.8042034912109375 1.8190825195312497 Q 2.818453491210937 1.8592075195312496 2.8447034912109372 1.8903325195312497 Q 2.8709534912109373 1.9214575195312498 2.9073284912109374 1.9398325195312498 Q 2.9437034912109374 1.9582075195312496 2.9872034912109373 1.9582075195312496 Q 3.0329534912109373 1.9582075195312496 3.0693284912109373 1.9390825195312498 Q 3.1057034912109374 1.9199575195312497 3.1315784912109375 1.8880825195312496 Q 3.157453491210937 1.8562075195312497 3.170953491210937 1.8164575195312498 Q 3.1844534912109372 1.7767075195312496 3.1844534912109372 1.7354575195312498 Q 3.1844534912109372 1.6919575195312497 3.170203491210937 1.6522075195312498 Q 3.1559534912109375 1.6124575195312496 3.1293284912109374 1.5809575195312497 Q 3.1027034912109372 1.5494575195312497 3.066703491210937 1.5314575195312496 Q 3.030703491210937 1.5134575195312496 2.9872034912109373 1.5134575195312496 Q 2.9422034912109374 1.5134575195312496 2.9058284912109373 1.5322075195312497 Q 2.8694534912109373 1.5509575195312497 2.843578491210937 1.5828325195312498 Q 2.817703491210937 1.6147075195312497 2.8038284912109375 1.6544575195312496 Q 2.7899534912109374 1.6942075195312496 2.7899534912109374 1.7354575195312498 M 3.389560913085937 1.5659575195312496 L 3.389560913085937 2.0017075195312497 L 3.3370609130859368 2.0017075195312497 L 3.3370609130859368 1.4692075195312497 L 3.380560913085937 1.4692075195312497 L 3.730060913085937 1.9132075195312497 L 3.730060913085937 1.4699575195312495 L 3.782560913085937 1.4699575195312495 L 3.782560913085937 2.0017075195312497 L 3.7338109130859367 2.0017075195312497 L 3.389560913085937 1.5659575195312496 M 4.274915405273437 1.9552075195312497 L 4.274915405273437 2.0017075195312497 L 3.917165405273437 2.0017075195312497 L 3.917165405273437 1.4692075195312497 L 4.268165405273437 1.4692075195312497 L 4.268165405273437 1.5157075195312497 L 3.969665405273437 1.5157075195312497 L 3.969665405273437 1.7077075195312497 L 4.229915405273437 1.7077075195312497 L 4.229915405273437 1.7519575195312498 L 3.969665405273437 1.7519575195312498 L 3.969665405273437 1.9552075195312497 L 4.274915405273437 1.9552075195312497 M 4.683275756835937 1.5689575195312497 Q 4.672025756835937 1.5562075195312497 4.657025756835937 1.5460825195312498 Q 4.642025756835937 1.5359575195312498 4.623275756835937 1.5284575195312498 Q 4.604525756835937 1.5209575195312497 4.583150756835937 1.5164575195312497 Q 4.561775756835937 1.5119575195312498 4.537775756835937 1.5119575195312498 Q 4.468025756835937 1.5119575195312498 4.435400756835937 1.5385825195312497 Q 4.402775756835937 1.5652075195312496 4.402775756835937 1.6109575195312498 Q 4.402775756835937 1.6424575195312496 4.418150756835937 1.6604575195312496 Q 4.433525756835937 1.6784575195312497 4.466525756835937 1.6897075195312496 Q 4.499525756835937 1.7009575195312496 4.550525756835937 1.7129575195312496 Q 4.607525756835937 1.7249575195312497 4.648775756835937 1.7414575195312496 Q 4.690025756835937 1.7579575195312498 4.712525756835937 1.7860825195312497 Q 4.735025756835937 1.8142075195312497 4.735025756835937 1.8622075195312497 Q 4.735025756835937 1.8989575195312498 4.720775756835937 1.9259575195312497 Q 4.706525756835937 1.9529575195312496 4.681025756835937 1.9709575195312496 Q 4.655525756835937 1.9889575195312497 4.620275756835937 1.9975825195312498 Q 4.585025756835937 2.00620751953125 4.543025756835937 2.00620751953125 Q 4.501775756835937 2.00620751953125 4.463900756835937 1.9975825195312498 Q 4.426025756835937 1.9889575195312497 4.392275756835937 1.9720825195312497 Q 4.358525756835937 1.9552075195312497 4.329275756835937 1.9289575195312496 L 4.355525756835937 1.8862075195312498 Q 4.369775756835937 1.9012075195312497 4.389650756835937 1.9143325195312497 Q 4.409525756835937 1.9274575195312498 4.433900756835937 1.9379575195312497 Q 4.458275756835937 1.9484575195312497 4.486400756835937 1.9540825195312497 Q 4.514525756835937 1.9597075195312497 4.544525756835937 1.9597075195312497 Q 4.608275756835937 1.9597075195312497 4.643900756835937 1.9364575195312497 Q 4.679525756835937 1.9132075195312497 4.679525756835937 1.8674575195312497 Q 4.679525756835937 1.8344575195312496 4.661525756835937 1.8145825195312497 Q 4.643525756835937 1.7947075195312496 4.607525756835937 1.7819575195312498 Q 4.571525756835937 1.7692075195312498 4.519025756835937 1.7572075195312498 Q 4.463525756835937 1.7444575195312497 4.425275756835937 1.7287075195312496 Q 4.387025756835937 1.7129575195312496 4.367900756835937 1.6870825195312498 Q 4.348775756835937 1.6612075195312497 4.348775756835937 1.6184575195312496 Q 4.348775756835937 1.5689575195312497 4.373150756835937 1.5348325195312498 Q 4.397525756835937 1.5007075195312498 4.440275756835937 1.4830825195312496 Q 4.483025756835937 1.4654575195312498 4.538525756835937 1.4654575195312498 Q 4.573775756835937 1.4654575195312498 4.604150756835937 1.4725825195312496 Q 4.634525756835937 1.4797075195312497 4.660400756835937 1.4932075195312495 Q 4.686275756835937 1.5067075195312496 4.708775756835937 1.5269575195312497 L 4.683275756835937 1.5689575195312497 M 5.332025390625 1.5689575195312497 Q 5.320775390624999 1.5562075195312497 5.305775390625 1.5460825195312498 Q 5.290775390625 1.5359575195312498 5.272025390624999 1.5284575195312498 Q 5.253275390624999 1.5209575195312497 5.2319003906249995 1.5164575195312497 Q 5.2105253906249995 1.5119575195312498 5.1865253906249995 1.5119575195312498 Q 5.1167753906249995 1.5119575195312498 5.084150390624999 1.5385825195312497 Q 5.051525390625 1.5652075195312496 5.051525390625 1.6109575195312498 Q 5.051525390625 1.6424575195312496 5.066900390624999 1.6604575195312496 Q 5.082275390625 1.6784575195312497 5.1152753906249995 1.6897075195312496 Q 5.148275390625 1.7009575195312496 5.199275390625 1.7129575195312496 Q 5.2562753906249995 1.7249575195312497 5.297525390624999 1.7414575195312496 Q 5.338775390625 1.7579575195312498 5.361275390625 1.7860825195312497 Q 5.383775390625 1.8142075195312497 5.383775390625 1.8622075195312497 Q 5.383775390625 1.8989575195312498 5.369525390624999 1.9259575195312497 Q 5.355275390625 1.9529575195312496 5.329775390625 1.9709575195312496 Q 5.3042753906249995 1.9889575195312497 5.269025390625 1.9975825195312498 Q 5.2337753906249995 2.00620751953125 5.191775390625 2.00620751953125 Q 5.150525390625 2.00620751953125 5.112650390624999 1.9975825195312498 Q 5.074775390625 1.9889575195312497 5.041025390624999 1.9720825195312497 Q 5.007275390625 1.9552075195312497 4.978025390625 1.9289575195312496 L 5.004275390625 1.8862075195312498 Q 5.018525390624999 1.9012075195312497 5.038400390624999 1.9143325195312497 Q 5.058275390625 1.9274575195312498 5.082650390625 1.9379575195312497 Q 5.107025390624999 1.9484575195312497 5.135150390624999 1.9540825195312497 Q 5.1632753906249995 1.9597075195312497 5.193275390625 1.9597075195312497 Q 5.2570253906249995 1.9597075195312497 5.292650390625 1.9364575195312497 Q 5.3282753906249996 1.9132075195312497 5.3282753906249996 1.8674575195312497 Q 5.3282753906249996 1.8344575195312496 5.310275390625 1.8145825195312497 Q 5.292275390625 1.7947075195312496 5.2562753906249995 1.7819575195312498 Q 5.220275390625 1.7692075195312498 5.167775390625 1.7572075195312498 Q 5.112275390624999 1.7444575195312497 5.074025390625 1.7287075195312496 Q 5.035775390625 1.7129575195312496 5.016650390624999 1.6870825195312498 Q 4.9975253906249995 1.6612075195312497 4.9975253906249995 1.6184575195312496 Q 4.9975253906249995 1.5689575195312497 5.0219003906249995 1.5348325195312498 Q 5.0462753906249995 1.5007075195312498 5.089025390624999 1.4830825195312496 Q 5.131775390624999 1.4654575195312498 5.1872753906249995 1.4654575195312498 Q 5.222525390625 1.4654575195312498 5.252900390624999 1.4725825195312496 Q 5.283275390625 1.4797075195312497 5.309150390625 1.4932075195312495 Q 5.335025390625 1.5067075195312496 5.357525390625 1.5269575195312497 L 5.332025390625 1.5689575195312497 M 5.691646362304687 2.00545751953125 Q 5.635396362304687 2.00545751953125 5.589646362304687 1.9829575195312497 Q 5.543896362304687 1.9604575195312497 5.510896362304687 1.9218325195312498 Q 5.477896362304687 1.8832075195312497 5.459896362304687 1.8348325195312496 Q 5.441896362304687 1.7864575195312498 5.441896362304687 1.7354575195312498 Q 5.441896362304687 1.6822075195312496 5.460646362304687 1.6338325195312497 Q 5.479396362304687 1.5854575195312497 5.5135213623046875 1.5475825195312498 Q 5.547646362304687 1.5097075195312497 5.593396362304687 1.4875825195312498 Q 5.639146362304687 1.4654575195312498 5.692396362304687 1.4654575195312498 Q 5.7486463623046875 1.4654575195312498 5.7943963623046875 1.4887075195312498 Q 5.840146362304687 1.5119575195312498 5.872771362304687 1.5509575195312497 Q 5.905396362304687 1.5899575195312496 5.923396362304687 1.6379575195312497 Q 5.941396362304687 1.6859575195312497 5.941396362304687 1.7362075195312496 Q 5.941396362304687 1.7894575195312497 5.922646362304687 1.8378325195312497 Q 5.903896362304687 1.8862075195312498 5.870146362304687 1.9240825195312496 Q 5.836396362304687 1.9619575195312497 5.790646362304687 1.9837075195312497 Q 5.744896362304687 2.00545751953125 5.691646362304687 2.00545751953125 M 5.494396362304687 1.7354575195312498 Q 5.494396362304687 1.7789575195312497 5.508646362304687 1.8190825195312497 Q 5.522896362304687 1.8592075195312496 5.549146362304687 1.8903325195312497 Q 5.575396362304687 1.9214575195312498 5.611771362304687 1.9398325195312498 Q 5.648146362304687 1.9582075195312496 5.691646362304687 1.9582075195312496 Q 5.737396362304687 1.9582075195312496 5.773771362304688 1.9390825195312498 Q 5.810146362304687 1.9199575195312497 5.836021362304687 1.8880825195312496 Q 5.861896362304687 1.8562075195312497 5.875396362304687 1.8164575195312498 Q 5.8888963623046875 1.7767075195312496 5.8888963623046875 1.7354575195312498 Q 5.8888963623046875 1.6919575195312497 5.874646362304687 1.6522075195312498 Q 5.860396362304687 1.6124575195312496 5.833771362304687 1.5809575195312497 Q 5.807146362304687 1.5494575195312497 5.7711463623046875 1.5314575195312496 Q 5.735146362304687 1.5134575195312496 5.691646362304687 1.5134575195312496 Q 5.646646362304687 1.5134575195312496 5.610271362304687 1.5322075195312497 Q 5.573896362304687 1.5509575195312497 5.548021362304687 1.5828325195312498 Q 5.522146362304687 1.6147075195312497 5.508271362304687 1.6544575195312496 Q 5.494396362304687 1.6942075195312496 5.494396362304687 1.7354575195312498 M 6.041503784179687 2.0017075195312497 L 6.041503784179687 1.4692075195312497 L 6.094003784179687 1.4692075195312497 L 6.094003784179687 1.9552075195312497 L 6.401503784179687 1.9552075195312497 L 6.401503784179687 2.0017075195312497 L 6.041503784179687 2.0017075195312497 M 6.644884643554687 1.4692075195312497 L 6.689134643554687 1.4692075195312497 L 6.910384643554687 2.0017075195312497 L 6.854884643554687 2.0017075195312497 L 6.785884643554687 1.8352075195312496 L 6.546634643554687 1.8352075195312496 L 6.478384643554687 2.0017075195312497 L 6.4221346435546875 2.0017075195312497 L 6.644884643554687 1.4692075195312497 M 6.773884643554688 1.7939575195312496 L 6.666634643554687 1.5307075195312496 L 6.557884643554687 1.7939575195312496 L 6.773884643554688 1.7939575195312496 M 6.988028686523437 2.0017075195312497 L 6.988028686523437 1.4692075195312497 L 7.213028686523438 1.4692075195312497 Q 7.247528686523437 1.4692075195312497 7.276028686523437 1.4834575195312496 Q 7.304528686523438 1.4977075195312497 7.3259036865234375 1.5220825195312497 Q 7.347278686523437 1.5464575195312498 7.358903686523437 1.5760825195312496 Q 7.370528686523437 1.6057075195312498 7.370528686523437 1.6364575195312496 Q 7.370528686523437 1.6747075195312497 7.355903686523437 1.7084575195312497 Q 7.341278686523437 1.7422075195312496 7.314653686523437 1.7654575195312496 Q 7.288028686523437 1.7887075195312496 7.252028686523437 1.7962075195312497 L 7.382528686523437 2.0017075195312497 L 7.323278686523437 2.0017075195312497 L 7.198028686523437 1.8052075195312498 L 7.040528686523437 1.8052075195312498 L 7.040528686523437 2.0017075195312497 L 6.988028686523437 2.0017075195312497 M 7.040528686523437 1.7587075195312498 L 7.214528686523437 1.7587075195312498 Q 7.246028686523437 1.7587075195312498 7.269278686523437 1.7414575195312496 Q 7.292528686523437 1.7242075195312496 7.305278686523438 1.6960825195312497 Q 7.318028686523437 1.6679575195312497 7.318028686523437 1.6364575195312496 Q 7.318028686523437 1.6042075195312497 7.3034036865234375 1.5768325195312496 Q 7.288778686523437 1.5494575195312497 7.264403686523437 1.5325825195312497 Q 7.240028686523437 1.5157075195312497 7.2100286865234375 1.5157075195312497 L 7.040528686523437 1.5157075195312497 L 7.040528686523437 1.7587075195312498 M 7.8366650390625 1.9552075195312497 L 7.8366650390625 2.0017075195312497 L 7.4789150390625 2.0017075195312497 L 7.4789150390625 1.4692075195312497 L 7.8299150390625 1.4692075195312497 L 7.8299150390625 1.5157075195312497 L 7.5314150390625 1.5157075195312497 L 7.5314150390625 1.7077075195312497 L 7.7916650390625 1.7077075195312497 L 7.7916650390625 1.7519575195312498 L 7.5314150390625 1.7519575195312498 L 7.5314150390625 1.9552075195312497 L 7.8366650390625 1.9552075195312497 M 8.245025390624999 1.5689575195312497 Q 8.233775390625 1.5562075195312497 8.218775390625 1.5460825195312498 Q 8.203775390625 1.5359575195312498 8.185025390625 1.5284575195312498 Q 8.166275390625 1.5209575195312497 8.144900390625 1.5164575195312497 Q 8.123525390625 1.5119575195312498 8.099525390625 1.5119575195312498 Q 8.029775390625 1.5119575195312498 7.997150390624999 1.5385825195312497 Q 7.964525390625 1.5652075195312496 7.964525390625 1.6109575195312498 Q 7.964525390625 1.6424575195312496 7.979900390625 1.6604575195312496 Q 7.995275390625 1.6784575195312497 8.028275390625 1.6897075195312496 Q 8.061275390625 1.7009575195312496 8.112275390625 1.7129575195312496 Q 8.169275390625 1.7249575195312497 8.210525390625 1.7414575195312496 Q 8.251775390625 1.7579575195312498 8.274275390625 1.7860825195312497 Q 8.296775390625 1.8142075195312497 8.296775390625 1.8622075195312497 Q 8.296775390625 1.8989575195312498 8.282525390625 1.9259575195312497 Q 8.268275390625 1.9529575195312496 8.242775390624999 1.9709575195312496 Q 8.217275390625 1.9889575195312497 8.182025390625 1.9975825195312498 Q 8.146775390625 2.00620751953125 8.104775390624999 2.00620751953125 Q 8.063525390625 2.00620751953125 8.025650390625 1.9975825195312498 Q 7.987775390625 1.9889575195312497 7.954025390625 1.9720825195312497 Q 7.920275390625 1.9552075195312497 7.891025390625 1.9289575195312496 L 7.917275390625 1.8862075195312498 Q 7.931525390625 1.9012075195312497 7.9514003906249995 1.9143325195312497 Q 7.971275390625 1.9274575195312498 7.995650390625 1.9379575195312497 Q 8.020025390625 1.9484575195312497 8.048150390625 1.9540825195312497 Q 8.076275390625 1.9597075195312497 8.106275390625 1.9597075195312497 Q 8.170025390625 1.9597075195312497 8.205650390625 1.9364575195312497 Q 8.241275390625 1.9132075195312497 8.241275390625 1.8674575195312497 Q 8.241275390625 1.8344575195312496 8.223275390625 1.8145825195312497 Q 8.205275390625 1.7947075195312496 8.169275390625 1.7819575195312498 Q 8.133275390625 1.7692075195312498 8.080775390625 1.7572075195312498 Q 8.025275390625 1.7444575195312497 7.987025390625 1.7287075195312496 Q 7.948775390625 1.7129575195312496 7.9296503906249995 1.6870825195312498 Q 7.910525390625 1.6612075195312497 7.910525390625 1.6184575195312496 Q 7.910525390625 1.5689575195312497 7.934900390625 1.5348325195312498 Q 7.959275390625 1.5007075195312498 8.002025390625 1.4830825195312496 Q 8.044775390625 1.4654575195312498 8.100275390625 1.4654575195312498 Q 8.135525390625 1.4654575195312498 8.165900390625 1.4725825195312496 Q 8.196275390624999 1.4797075195312497 8.222150390625 1.4932075195312495 Q 8.248025390625 1.5067075195312496 8.270525390625 1.5269575195312497 L 8.245025390624999 1.5689575195312497 M 8.582525024414062 2.0017075195312497 L 8.582525024414062 1.4692075195312497 L 8.803025024414062 1.4692075195312497 Q 8.837525024414061 1.4692075195312497 8.866400024414062 1.4834575195312496 Q 8.895275024414062 1.4977075195312497 8.91627502441406 1.5220825195312497 Q 8.937275024414062 1.5464575195312498 8.949275024414062 1.5760825195312496 Q 8.96127502441406 1.6057075195312498 8.96127502441406 1.6364575195312496 Q 8.96127502441406 1.6799575195312497 8.942150024414062 1.7185825195312496 Q 8.923025024414061 1.7572075195312498 8.888525024414061 1.7812075195312498 Q 8.854025024414062 1.8052075195312498 8.807525024414062 1.8052075195312498 L 8.63502502441406 1.8052075195312498 L 8.63502502441406 2.0017075195312497 L 8.582525024414062 2.0017075195312497 M 8.63502502441406 1.7587075195312498 L 8.805275024414062 1.7587075195312498 Q 8.836775024414061 1.7587075195312498 8.860025024414062 1.7414575195312496 Q 8.883275024414061 1.7242075195312496 8.896025024414062 1.6964575195312497 Q 8.908775024414062 1.6687075195312497 8.908775024414062 1.6364575195312496 Q 8.908775024414062 1.6034575195312497 8.893775024414062 1.5757075195312498 Q 8.878775024414061 1.5479575195312498 8.854400024414062 1.5318325195312497 Q 8.830025024414061 1.5157075195312497 8.800775024414062 1.5157075195312497 L 8.63502502441406 1.5157075195312497 L 8.63502502441406 1.7587075195312498 M 9.178398559570311 1.4692075195312497 L 9.222648559570311 1.4692075195312497 L 9.44389855957031 2.0017075195312497 L 9.388398559570312 2.0017075195312497 L 9.319398559570311 1.8352075195312496 L 9.080148559570311 1.8352075195312496 L 9.011898559570312 2.0017075195312497 L 8.955648559570312 2.0017075195312497 L 9.178398559570311 1.4692075195312497 M 9.307398559570311 1.7939575195312496 L 9.200148559570312 1.5307075195312496 L 9.091398559570312 1.7939575195312496 L 9.307398559570311 1.7939575195312496 M 9.521542602539062 2.0017075195312497 L 9.521542602539062 1.4692075195312497 L 9.746542602539062 1.4692075195312497 Q 9.781042602539062 1.4692075195312497 9.80954260253906 1.4834575195312496 Q 9.838042602539062 1.4977075195312497 9.859417602539061 1.5220825195312497 Q 9.880792602539062 1.5464575195312498 9.892417602539062 1.5760825195312496 Q 9.90404260253906 1.6057075195312498 9.90404260253906 1.6364575195312496 Q 9.90404260253906 1.6747075195312497 9.889417602539062 1.7084575195312497 Q 9.874792602539062 1.7422075195312496 9.848167602539062 1.7654575195312496 Q 9.821542602539061 1.7887075195312496 9.785542602539062 1.7962075195312497 L 9.916042602539061 2.0017075195312497 L 9.85679260253906 2.0017075195312497 L 9.731542602539061 1.8052075195312498 L 9.57404260253906 1.8052075195312498 L 9.57404260253906 2.0017075195312497 L 9.521542602539062 2.0017075195312497 M 9.57404260253906 1.7587075195312498 L 9.748042602539062 1.7587075195312498 Q 9.779542602539061 1.7587075195312498 9.802792602539062 1.7414575195312496 Q 9.826042602539061 1.7242075195312496 9.838792602539062 1.6960825195312497 Q 9.851542602539062 1.6679575195312497 9.851542602539062 1.6364575195312496 Q 9.851542602539062 1.6042075195312497 9.836917602539062 1.5768325195312496 Q 9.822292602539061 1.5494575195312497 9.797917602539062 1.5325825195312497 Q 9.773542602539061 1.5157075195312497 9.743542602539062 1.5157075195312497 L 9.57404260253906 1.5157075195312497 L 9.57404260253906 1.7587075195312498 M 10.175185913085937 1.4692075195312497 L 10.219435913085936 1.4692075195312497 L 10.440685913085936 2.0017075195312497 L 10.385185913085937 2.0017075195312497 L 10.316185913085937 1.8352075195312496 L 10.076935913085936 1.8352075195312496 L 10.008685913085937 2.0017075195312497 L 9.952435913085937 2.0017075195312497 L 10.175185913085937 1.4692075195312497 M 10.304185913085936 1.7939575195312496 L 10.196935913085937 1.5307075195312496 L 10.088185913085937 1.7939575195312496 L 10.304185913085936 1.7939575195312496 M 10.904204223632812 2.00545751953125 Q 10.841204223632811 2.00545751953125 10.797704223632811 1.9829575195312497 Q 10.754204223632811 1.9604575195312497 10.728704223632812 1.9225825195312498 Q 10.703204223632811 1.8847075195312497 10.69157922363281 1.8367075195312497 Q 10.679954223632812 1.7887075195312496 10.679954223632812 1.7377075195312497 L 10.679954223632812 1.4692075195312497 L 10.731704223632812 1.4692075195312497 L 10.731704223632812 1.7377075195312497 Q 10.731704223632812 1.7789575195312497 10.740329223632811 1.8187075195312497 Q 10.748954223632811 1.8584575195312496 10.768454223632812 1.8899575195312497 Q 10.787954223632811 1.9214575195312498 10.820954223632812 1.9398325195312498 Q 10.853954223632812 1.9582075195312496 10.903454223632812 1.9582075195312496 Q 10.954454223632812 1.9582075195312496 10.987829223632811 1.9390825195312498 Q 11.021204223632811 1.9199575195312497 11.040329223632812 1.8884575195312496 Q 11.059454223632812 1.8569575195312498 11.067704223632811 1.8175825195312496 Q 11.075954223632811 1.7782075195312497 11.075954223632811 1.7377075195312497 L 11.075954223632811 1.4692075195312497 L 11.128454223632811 1.4692075195312497 L 11.128454223632811 1.7377075195312497 Q 11.128454223632811 1.7909575195312497 11.116454223632811 1.8397075195312498 Q 11.104454223632812 1.8884575195312496 11.077829223632811 1.9252075195312497 Q 11.051204223632812 1.9619575195312497 11.008454223632812 1.9837075195312497 Q 10.965704223632812 2.00545751953125 10.904204223632812 2.00545751953125 M 11.307332885742186 1.5659575195312496 L 11.307332885742186 2.0017075195312497 L 11.254832885742188 2.0017075195312497 L 11.254832885742188 1.4692075195312497 L 11.298332885742187 1.4692075195312497 L 11.647832885742186 1.9132075195312497 L 11.647832885742186 1.4699575195312495 L 11.700332885742187 1.4699575195312495 L 11.700332885742187 2.0017075195312497 L 11.651582885742187 2.0017075195312497 L 11.307332885742186 1.5659575195312496 M 12.027316040039063 2.0017075195312497 L 12.027316040039063 1.4692075195312497 L 12.376816040039062 1.4692075195312497 L 12.376816040039062 1.5157075195312497 L 12.079816040039061 1.5157075195312497 L 12.079816040039061 1.7114575195312498 L 12.330316040039062 1.7114575195312498 L 12.330316040039062 1.7549575195312497 L 12.079816040039061 1.7549575195312497 L 12.079816040039061 2.0017075195312497 L 12.027316040039063 2.0017075195312497 M 12.686932983398437 2.00545751953125 Q 12.623932983398436 2.00545751953125 12.580432983398437 1.9829575195312497 Q 12.536932983398437 1.9604575195312497 12.511432983398437 1.9225825195312498 Q 12.485932983398436 1.8847075195312497 12.474307983398436 1.8367075195312497 Q 12.462682983398437 1.7887075195312496 12.462682983398437 1.7377075195312497 L 12.462682983398437 1.4692075195312497 L 12.514432983398438 1.4692075195312497 L 12.514432983398438 1.7377075195312497 Q 12.514432983398438 1.7789575195312497 12.523057983398436 1.8187075195312497 Q 12.531682983398436 1.8584575195312496 12.551182983398437 1.8899575195312497 Q 12.570682983398436 1.9214575195312498 12.603682983398437 1.9398325195312498 Q 12.636682983398437 1.9582075195312496 12.686182983398437 1.9582075195312496 Q 12.737182983398437 1.9582075195312496 12.770557983398437 1.9390825195312498 Q 12.803932983398436 1.9199575195312497 12.823057983398437 1.8884575195312496 Q 12.842182983398438 1.8569575195312498 12.850432983398436 1.8175825195312496 Q 12.858682983398436 1.7782075195312497 12.858682983398436 1.7377075195312497 L 12.858682983398436 1.4692075195312497 L 12.911182983398437 1.4692075195312497 L 12.911182983398437 1.7377075195312497 Q 12.911182983398437 1.7909575195312497 12.899182983398436 1.8397075195312498 Q 12.887182983398437 1.8884575195312496 12.860557983398436 1.9252075195312497 Q 12.833932983398437 1.9619575195312497 12.791182983398437 1.9837075195312497 Q 12.748432983398438 2.00545751953125 12.686932983398437 2.00545751953125 M 13.415561645507813 1.5157075195312497 L 13.225811645507813 1.5157075195312497 L 13.225811645507813 2.0017075195312497 L 13.173311645507813 2.0017075195312497 L 13.173311645507813 1.5157075195312497 L 12.983561645507812 1.5157075195312497 L 12.983561645507812 1.4692075195312497 L 13.415561645507813 1.4692075195312497 L 13.415561645507813 1.5157075195312497 M 13.712925659179687 2.00545751953125 Q 13.649925659179686 2.00545751953125 13.606425659179687 1.9829575195312497 Q 13.562925659179687 1.9604575195312497 13.537425659179688 1.9225825195312498 Q 13.511925659179687 1.8847075195312497 13.500300659179686 1.8367075195312497 Q 13.488675659179687 1.7887075195312496 13.488675659179687 1.7377075195312497 L 13.488675659179687 1.4692075195312497 L 13.540425659179688 1.4692075195312497 L 13.540425659179688 1.7377075195312497 Q 13.540425659179688 1.7789575195312497 13.549050659179686 1.8187075195312497 Q 13.557675659179687 1.8584575195312496 13.577175659179687 1.8899575195312497 Q 13.596675659179686 1.9214575195312498 13.629675659179687 1.9398325195312498 Q 13.662675659179687 1.9582075195312496 13.712175659179687 1.9582075195312496 Q 13.763175659179687 1.9582075195312496 13.796550659179687 1.9390825195312498 Q 13.829925659179686 1.9199575195312497 13.849050659179687 1.8884575195312496 Q 13.868175659179688 1.8569575195312498 13.876425659179686 1.8175825195312496 Q 13.884675659179686 1.7782075195312497 13.884675659179686 1.7377075195312497 L 13.884675659179686 1.4692075195312497 L 13.937175659179687 1.4692075195312497 L 13.937175659179687 1.7377075195312497 Q 13.937175659179687 1.7909575195312497 13.925175659179686 1.8397075195312498 Q 13.913175659179688 1.8884575195312496 13.886550659179687 1.9252075195312497 Q 13.859925659179687 1.9619575195312497 13.817175659179687 1.9837075195312497 Q 13.774425659179688 2.00545751953125 13.712925659179687 2.00545751953125 M 14.063554321289063 2.0017075195312497 L 14.063554321289063 1.4692075195312497 L 14.288554321289062 1.4692075195312497 Q 14.323054321289062 1.4692075195312497 14.351554321289061 1.4834575195312496 Q 14.380054321289062 1.4977075195312497 14.401429321289061 1.5220825195312497 Q 14.422804321289062 1.5464575195312498 14.434429321289063 1.5760825195312496 Q 14.446054321289061 1.6057075195312498 14.446054321289061 1.6364575195312496 Q 14.446054321289061 1.6747075195312497 14.431429321289063 1.7084575195312497 Q 14.416804321289062 1.7422075195312496 14.390179321289063 1.7654575195312496 Q 14.363554321289062 1.7887075195312496 14.327554321289062 1.7962075195312497 L 14.458054321289062 2.0017075195312497 L 14.398804321289061 2.0017075195312497 L 14.273554321289062 1.8052075195312498 L 14.116054321289061 1.8052075195312498 L 14.116054321289061 2.0017075195312497 L 14.063554321289063 2.0017075195312497 M 14.116054321289061 1.7587075195312498 L 14.290054321289062 1.7587075195312498 Q 14.321554321289062 1.7587075195312498 14.344804321289063 1.7414575195312496 Q 14.368054321289062 1.7242075195312496 14.380804321289062 1.6960825195312497 Q 14.393554321289063 1.6679575195312497 14.393554321289063 1.6364575195312496 Q 14.393554321289063 1.6042075195312497 14.378929321289062 1.5768325195312496 Q 14.364304321289062 1.5494575195312497 14.339929321289063 1.5325825195312497 Q 14.315554321289062 1.5157075195312497 14.285554321289062 1.5157075195312497 L 14.116054321289061 1.5157075195312497 L 14.116054321289061 1.7587075195312498 M 14.768940673828125 2.00545751953125 Q 14.712690673828124 2.00545751953125 14.666940673828124 1.9829575195312497 Q 14.621190673828124 1.9604575195312497 14.588190673828125 1.9218325195312498 Q 14.555190673828125 1.8832075195312497 14.537190673828125 1.8348325195312496 Q 14.519190673828124 1.7864575195312498 14.519190673828124 1.7354575195312498 Q 14.519190673828124 1.6822075195312496 14.537940673828125 1.6338325195312497 Q 14.556690673828125 1.5854575195312497 14.590815673828125 1.5475825195312498 Q 14.624940673828124 1.5097075195312497 14.670690673828124 1.4875825195312498 Q 14.716440673828124 1.4654575195312498 14.769690673828125 1.4654575195312498 Q 14.825940673828125 1.4654575195312498 14.871690673828125 1.4887075195312498 Q 14.917440673828125 1.5119575195312498 14.950065673828124 1.5509575195312497 Q 14.982690673828124 1.5899575195312496 15.000690673828124 1.6379575195312497 Q 15.018690673828125 1.6859575195312497 15.018690673828125 1.7362075195312496 Q 15.018690673828125 1.7894575195312497 14.999940673828124 1.8378325195312497 Q 14.981190673828124 1.8862075195312498 14.947440673828124 1.9240825195312496 Q 14.913690673828125 1.9619575195312497 14.867940673828125 1.9837075195312497 Q 14.822190673828125 2.00545751953125 14.768940673828125 2.00545751953125 M 14.571690673828124 1.7354575195312498 Q 14.571690673828124 1.7789575195312497 14.585940673828125 1.8190825195312497 Q 14.600190673828125 1.8592075195312496 14.626440673828125 1.8903325195312497 Q 14.652690673828124 1.9214575195312498 14.689065673828125 1.9398325195312498 Q 14.725440673828125 1.9582075195312496 14.768940673828125 1.9582075195312496 Q 14.814690673828125 1.9582075195312496 14.851065673828124 1.9390825195312498 Q 14.887440673828124 1.9199575195312497 14.913315673828125 1.8880825195312496 Q 14.939190673828124 1.8562075195312497 14.952690673828124 1.8164575195312498 Q 14.966190673828125 1.7767075195312496 14.966190673828125 1.7354575195312498 Q 14.966190673828125 1.6919575195312497 14.951940673828124 1.6522075195312498 Q 14.937690673828124 1.6124575195312496 14.911065673828125 1.5809575195312497 Q 14.884440673828125 1.5494575195312497 14.848440673828124 1.5314575195312496 Q 14.812440673828124 1.5134575195312496 14.768940673828125 1.5134575195312496 Q 14.723940673828125 1.5134575195312496 14.687565673828125 1.5322075195312497 Q 14.651190673828125 1.5509575195312497 14.625315673828124 1.5828325195312498 Q 14.599440673828125 1.6147075195312497 14.585565673828125 1.6544575195312496 Q 14.571690673828124 1.6942075195312496 14.571690673828124 1.7354575195312498 M 15.7116767578125 1.8644575195312496 Q 15.7116767578125 1.9042075195312498 15.691426757812499 1.9353325195312496 Q 15.6711767578125 1.9664575195312497 15.6370517578125 1.9840825195312497 Q 15.602926757812499 2.0017075195312497 15.5624267578125 2.0017075195312497 L 15.3111767578125 2.0017075195312497 L 15.3111767578125 1.4692075195312497 L 15.5676767578125 1.4692075195312497 Q 15.6051767578125 1.4692075195312497 15.6325517578125 1.4890825195312498 Q 15.6599267578125 1.5089575195312497 15.6745517578125 1.5400825195312497 Q 15.6891767578125 1.5712075195312498 15.6891767578125 1.6049575195312498 Q 15.6891767578125 1.6447075195312497 15.6689267578125 1.6784575195312497 Q 15.648676757812499 1.7122075195312498 15.6126767578125 1.7287075195312496 Q 15.6584267578125 1.7422075195312496 15.6850517578125 1.7789575195312497 Q 15.7116767578125 1.8157075195312498 15.7116767578125 1.8644575195312496 M 15.6591767578125 1.8554575195312497 Q 15.6591767578125 1.8284575195312498 15.647176757812499 1.8055825195312498 Q 15.6351767578125 1.7827075195312496 15.6145517578125 1.7684575195312497 Q 15.5939267578125 1.7542075195312496 15.5676767578125 1.7542075195312496 L 15.363676757812499 1.7542075195312496 L 15.363676757812499 1.9559575195312497 L 15.5624267578125 1.9559575195312497 Q 15.5894267578125 1.9559575195312497 15.6111767578125 1.9417075195312496 Q 15.6329267578125 1.9274575195312498 15.646051757812499 1.9045825195312498 Q 15.6591767578125 1.8817075195312496 15.6591767578125 1.8554575195312497 M 15.363676757812499 1.5149575195312497 L 15.363676757812499 1.7114575195312498 L 15.5466767578125 1.7114575195312498 Q 15.5729267578125 1.7114575195312498 15.5931767578125 1.6975825195312497 Q 15.6134267578125 1.6837075195312496 15.6254267578125 1.6612075195312497 Q 15.6374267578125 1.6387075195312497 15.6374267578125 1.6132075195312496 Q 15.6374267578125 1.5862075195312497 15.6261767578125 1.5640825195312498 Q 15.6149267578125 1.5419575195312496 15.5954267578125 1.5284575195312498 Q 15.5759267578125 1.5149575195312497 15.551176757812499 1.5149575195312497 L 15.363676757812499 1.5149575195312497 M 15.8118134765625 2.0017075195312497 L 15.8118134765625 1.4692075195312497 L 16.0368134765625 1.4692075195312497 Q 16.0713134765625 1.4692075195312497 16.0998134765625 1.4834575195312496 Q 16.1283134765625 1.4977075195312497 16.1496884765625 1.5220825195312497 Q 16.171063476562498 1.5464575195312498 16.1826884765625 1.5760825195312496 Q 16.1943134765625 1.6057075195312498 16.1943134765625 1.6364575195312496 Q 16.1943134765625 1.6747075195312497 16.1796884765625 1.7084575195312497 Q 16.1650634765625 1.7422075195312496 16.1384384765625 1.7654575195312496 Q 16.1118134765625 1.7887075195312496 16.075813476562498 1.7962075195312497 L 16.2063134765625 2.0017075195312497 L 16.1470634765625 2.0017075195312497 L 16.0218134765625 1.8052075195312498 L 15.864313476562499 1.8052075195312498 L 15.864313476562499 2.0017075195312497 L 15.8118134765625 2.0017075195312497 M 15.864313476562499 1.7587075195312498 L 16.0383134765625 1.7587075195312498 Q 16.0698134765625 1.7587075195312498 16.0930634765625 1.7414575195312496 Q 16.1163134765625 1.7242075195312496 16.1290634765625 1.6960825195312497 Q 16.1418134765625 1.6679575195312497 16.1418134765625 1.6364575195312496 Q 16.1418134765625 1.6042075195312497 16.127188476562498 1.5768325195312496 Q 16.1125634765625 1.5494575195312497 16.0881884765625 1.5325825195312497 Q 16.0638134765625 1.5157075195312497 16.0338134765625 1.5157075195312497 L 15.864313476562499 1.5157075195312497 L 15.864313476562499 1.7587075195312498 M 16.30269982910156 2.0017075195312497 L 16.30269982910156 1.4692075195312497 L 16.35519982910156 1.4692075195312497 L 16.35519982910156 2.0017075195312497 L 16.30269982910156 2.0017075195312497 M 16.48981420898437 2.0017075195312497 L 16.48981420898437 1.4692075195312497 L 16.542314208984372 1.4692075195312497 L 16.542314208984372 1.9552075195312497 L 16.84981420898437 1.9552075195312497 L 16.84981420898437 2.0017075195312497 L 16.48981420898437 2.0017075195312497 M 16.92819506835937 2.0017075195312497 L 16.92819506835937 1.4692075195312497 L 16.98069506835937 1.4692075195312497 L 16.98069506835937 1.9552075195312497 L 17.288195068359368 1.9552075195312497 L 17.288195068359368 2.0017075195312497 L 16.92819506835937 2.0017075195312497 M 17.53157592773437 1.4692075195312497 L 17.575825927734368 1.4692075195312497 L 17.79707592773437 2.0017075195312497 L 17.741575927734367 2.0017075195312497 L 17.672575927734368 1.8352075195312496 L 17.43332592773437 1.8352075195312496 L 17.365075927734367 2.0017075195312497 L 17.308825927734368 2.0017075195312497 L 17.53157592773437 1.4692075195312497 M 17.660575927734367 1.7939575195312496 L 17.553325927734367 1.5307075195312496 L 17.444575927734366 1.7939575195312496 L 17.660575927734367 1.7939575195312496 M 17.927219970703117 1.5659575195312496 L 17.927219970703117 2.0017075195312497 L 17.874719970703115 2.0017075195312497 L 17.874719970703115 1.4692075195312497 L 17.918219970703117 1.4692075195312497 L 18.267719970703116 1.9132075195312497 L 18.267719970703116 1.4699575195312495 L 18.320219970703118 1.4699575195312495 L 18.320219970703118 2.0017075195312497 L 18.271469970703116 2.0017075195312497 L 17.927219970703117 1.5659575195312496 M 18.832824462890613 1.5157075195312497 L 18.643074462890613 1.5157075195312497 L 18.643074462890613 2.0017075195312497 L 18.590574462890615 2.0017075195312497 L 18.590574462890615 1.5157075195312497 L 18.400824462890615 1.5157075195312497 L 18.400824462890615 1.4692075195312497 L 18.832824462890613 1.4692075195312497 L 18.832824462890613 1.5157075195312497 M 19.271188476562486 1.9552075195312497 L 19.271188476562486 2.0017075195312497 L 18.913438476562487 2.0017075195312497 L 18.913438476562487 1.4692075195312497 L 19.26443847656249 1.4692075195312497 L 19.26443847656249 1.5157075195312497 L 18.96593847656249 1.5157075195312497 L 18.96593847656249 1.7077075195312497 L 19.226188476562488 1.7077075195312497 L 19.226188476562488 1.7519575195312498 L 18.96593847656249 1.7519575195312498 L 18.96593847656249 1.9552075195312497 L 19.271188476562486 1.9552075195312497" fill="#1192dc" fill-rule="nonzero"></path></g></g><defs><clipPath id="SvgjsClipPath48553"><path d=" M -4.584053177801818 -1.0985547981674761 h 4.184053177801817 v 4.198817115866202 h -4.184053177801817 Z"></path></clipPath><clipPath id="SvgjsClipPath48548dc3e6e36-0adc-4072-b05d-63b37d71c460"><path d=" M -4.584053177801818 -1.0985547981674761 L -0.40000000000000036 -1.0985547981674761 L -0.40000000000000036 3.100262317698726 L -4.584053177801818 3.100262317698726 Z"></path></clipPath></defs></svg>