<?xml version="1.0"?>
<svg width="26.69612978236393" height="7.007448652068941" xmlns="http://www.w3.org/2000/svg" xmlns:svg="http://www.w3.org/2000/svg" version="1.1">
 <defs>
  <clipPath id="SvgjsClipPath48550">
   <path d="m-4.58,-1.1l4.18,0l0,4.2l-4.18,0l0,-4.2z" id="svg_1"/>
  </clipPath>
  <clipPath id="SvgjsClipPath4854853a7b5c0-039e-4e64-98db-d7cba1abdb97">
   <path d="m-4.58,-1.1l4.18,0l0,4.2l-4.18,0l0,-4.2z" id="svg_2"/>
  </clipPath>
 </defs>
 <g class="layer">
  <title>Layer 1</title>
  <g id="svg_3" transform="matrix(0.713874 0 0 0.713874 8.09417 2.78924)">
   <g clip-path="url(#SvgjsClipPath48550)" id="svg_4" transform="matrix(1,0,0,1,0,0)">
    <g clip-path="url(#SvgjsClipPath4854853a7b5c0-039e-4e64-98db-d7cba1abdb97)" id="svg_5">
     <path d="m-2.23,0l-2.11,0c-0.14,0.26 -0.22,0.56 -0.24,0.86l2.67,0c-0.02,-0.31 -0.13,-0.61 -0.32,-0.86z" fill="#1192dc" fill-rule="nonzero" id="svg_6" transform="matrix(1,0,0,1,0,0)"/>
    </g>
    <g clip-path="url(#SvgjsClipPath4854853a7b5c0-039e-4e64-98db-d7cba1abdb97)" id="svg_7">
     <path d="m-4.13,-0.31l1.62,0c-0.31,-0.26 -0.7,-0.41 -1.11,-0.41c-0.03,0 -0.05,0.01 -0.08,0.01c-0.16,0.11 -0.31,0.25 -0.43,0.4z" fill="#1192dc" fill-rule="nonzero" id="svg_8" transform="matrix(1,0,0,1,0,0)"/>
    </g>
    <g clip-path="url(#SvgjsClipPath4854853a7b5c0-039e-4e64-98db-d7cba1abdb97)" id="svg_9">
     <path d="m-4.11,2.33c0.12,0.15 0.25,0.28 0.41,0.38c0.03,0.01 0.05,0.01 0.08,0.01c0.39,0 0.78,-0.14 1.08,-0.39l-1.57,0z" fill="#1192dc" fill-rule="nonzero" id="svg_10" transform="matrix(1,0,0,1,0,0)"/>
    </g>
    <g clip-path="url(#SvgjsClipPath4854853a7b5c0-039e-4e64-98db-d7cba1abdb97)" id="svg_11">
     <path d="m-2.19,-0.31l1.34,0c-0.4,-0.5 -1.01,-0.79 -1.64,-0.79c-0.29,0 -0.58,0.06 -0.85,0.18c0.45,0.06 0.85,0.28 1.15,0.61z" fill="#202020" fill-rule="nonzero" id="svg_12" transform="matrix(1,0,0,1,0,0)"/>
    </g>
    <g clip-path="url(#SvgjsClipPath4854853a7b5c0-039e-4e64-98db-d7cba1abdb97)" id="svg_13">
     <path d="m-2.21,2.33c-0.3,0.32 -0.69,0.53 -1.12,0.59c0.26,0.12 0.55,0.18 0.84,0.18c0.63,0 1.22,-0.28 1.62,-0.77l-1.34,0z" fill="#202020" fill-rule="nonzero" id="svg_14" transform="matrix(1,0,0,1,0,0)"/>
    </g>
    <g clip-path="url(#SvgjsClipPath4854853a7b5c0-039e-4e64-98db-d7cba1abdb97)" id="svg_15">
     <path d="m-1.95,0c0.15,0.26 0.25,0.55 0.27,0.86l1.28,0c-0.02,-0.3 -0.1,-0.6 -0.25,-0.86l-1.3,0z" fill="#1192dc" fill-rule="nonzero" id="svg_16" transform="matrix(1,0,0,1,0,0)"/>
    </g>
    <g clip-path="url(#SvgjsClipPath4854853a7b5c0-039e-4e64-98db-d7cba1abdb97)" id="svg_17">
     <path d="m-0.4,1.17l-1.28,0c-0.03,0.3 -0.13,0.59 -0.29,0.85l1.31,0c0.15,-0.26 0.24,-0.55 0.26,-0.85z" fill="#1192dc" fill-rule="nonzero" id="svg_18" transform="matrix(1,0,0,1,0,0)"/>
    </g>
    <g clip-path="url(#SvgjsClipPath4854853a7b5c0-039e-4e64-98db-d7cba1abdb97)" id="svg_19">
     <path d="m-4.58,1.17c0.02,0.3 0.11,0.59 0.25,0.85l2.09,0c0.19,-0.25 0.3,-0.54 0.33,-0.85l-2.67,0z" fill="#1192dc" fill-rule="nonzero" id="svg_20" transform="matrix(1,0,0,1,0,0)"/>
    </g>
   </g>
   <g id="svg_21" transform="translate(0 -0.03125) translate(0 0.03125) translate(0 0.03125) translate(0 0.03125) translate(0 -0.03125) matrix(1 0 0 1.08299 0 0.383357)">
    <path d="m0.14,0.02l0.3,0l0.41,0.57l0.39,-0.57l0.29,0l0,1.09l-0.42,0l0,-0.56l-0.41,0.57l-0.4,-0.57l0,0.56l-0.16,0l0,-1.09m1.97,0.27l-0.12,-0.27l0.44,0l0.54,1.09l-0.48,0l-0.08,-0.18l-0.43,0l-0.08,0.18l-0.19,0l0.4,-0.82m0.22,0.47l-0.14,-0.29l-0.13,0.29l0.27,0m0.78,-0.74l0.92,0l0,0.17l-0.49,0l0,0.29l0.38,0l0,0.17l-0.38,0l0,0.29l0.49,0l0,0.17l-0.92,0l0,-1.09m1.14,0l0.43,0l0,0.92l0.41,0l0,0.17l-0.84,0l0,-1.09m0.95,0.54q0,-0.12 0.04,-0.23q0.04,-0.1 0.12,-0.17q0.08,-0.08 0.19,-0.12q0.12,-0.04 0.28,-0.04q0.15,0 0.27,0.04q0.12,0.04 0.2,0.12q0.07,0.07 0.11,0.17q0.04,0.11 0.04,0.23q0,0.12 -0.04,0.23q-0.04,0.1 -0.11,0.18q-0.08,0.07 -0.2,0.11q-0.12,0.04 -0.27,0.04q-0.16,0 -0.28,-0.04q-0.11,-0.04 -0.19,-0.11q-0.08,-0.08 -0.12,-0.18q-0.04,-0.11 -0.04,-0.23m0.63,0.41q0.04,0 0.07,-0.01q0.04,-0.02 0.06,-0.06q0.02,-0.05 0.04,-0.13q0.01,-0.08 0.01,-0.21q0,-0.13 -0.01,-0.21q-0.02,-0.08 -0.04,-0.12q-0.02,-0.05 -0.06,-0.06q-0.03,-0.02 -0.07,-0.02q-0.05,0 -0.08,0.02q-0.03,0.01 -0.06,0.06q-0.02,0.04 -0.03,0.12q-0.01,0.08 -0.01,0.21q0,0.13 0.01,0.21q0.01,0.08 0.03,0.13q0.03,0.04 0.06,0.06q0.03,0.01 0.08,0.01m1.31,-0.11q0.07,0.04 0.16,0.06q0.08,0.02 0.16,0.02q0.08,0 0.12,-0.02q0.04,-0.02 0.04,-0.07q0,-0.01 0,-0.02q-0.01,-0.02 -0.02,-0.03q-0.02,-0.01 -0.04,-0.03q-0.02,-0.01 -0.06,-0.03l-0.13,-0.04q-0.14,-0.05 -0.21,-0.13q-0.08,-0.08 -0.08,-0.2q0,-0.07 0.03,-0.14q0.04,-0.07 0.1,-0.12q0.06,-0.05 0.15,-0.08q0.1,-0.03 0.23,-0.03q0.06,0 0.12,0.01q0.06,0 0.11,0.02q0.05,0.01 0.09,0.02q0.04,0.02 0.07,0.03l-0.07,0.15q-0.03,-0.02 -0.05,-0.03q-0.03,-0.01 -0.06,-0.02q-0.02,-0.01 -0.05,-0.01q-0.02,0 -0.04,0q-0.04,0 -0.06,0.01q-0.03,0.01 -0.05,0.02q-0.02,0.02 -0.02,0.03q-0.01,0.02 -0.01,0.04q0,0.02 0,0.03q0.01,0.02 0.03,0.03q0.02,0.02 0.05,0.03q0.03,0.01 0.07,0.03l0.09,0.03q0.15,0.05 0.22,0.13q0.08,0.08 0.08,0.2q0,0.08 -0.04,0.15q-0.04,0.07 -0.11,0.12q-0.07,0.05 -0.18,0.08q-0.1,0.02 -0.24,0.02q-0.07,0 -0.13,0q-0.07,-0.01 -0.13,-0.03q-0.06,-0.01 -0.11,-0.03q-0.06,-0.02 -0.12,-0.05l0.09,-0.15m1.11,-0.3q0,-0.12 0.04,-0.23q0.03,-0.1 0.11,-0.17q0.08,-0.08 0.2,-0.12q0.12,-0.04 0.27,-0.04q0.16,0 0.27,0.04q0.12,0.04 0.2,0.12q0.08,0.07 0.12,0.17q0.04,0.11 0.04,0.23q0,0.12 -0.04,0.23q-0.04,0.1 -0.12,0.18q-0.08,0.07 -0.2,0.11q-0.11,0.04 -0.27,0.04q-0.15,0 -0.27,-0.04q-0.12,-0.04 -0.2,-0.11q-0.08,-0.08 -0.11,-0.18q-0.04,-0.11 -0.04,-0.23m0.62,0.41q0.05,0 0.08,-0.01q0.03,-0.02 0.06,-0.06q0.02,-0.05 0.03,-0.13q0.01,-0.08 0.01,-0.21q0,-0.13 -0.01,-0.21q-0.01,-0.08 -0.03,-0.12q-0.03,-0.05 -0.06,-0.06q-0.03,-0.02 -0.08,-0.02q-0.04,0 -0.08,0.02q-0.03,0.01 -0.05,0.06q-0.03,0.04 -0.04,0.12q-0.01,0.08 -0.01,0.21q0,0.13 0.01,0.21q0.01,0.08 0.04,0.13q0.02,0.04 0.05,0.06q0.04,0.01 0.08,0.01m0.84,-0.95l0.43,0l-0.01,0.92l0.42,0l0,0.17l-0.84,0l0,-1.09m1.32,0.27l-0.13,-0.27l0.45,0l0.53,1.09l-0.48,0l-0.08,-0.18l-0.43,0l-0.08,0.18l-0.18,0l0.4,-0.82m0.21,0.47l-0.14,-0.29l-0.13,0.29l0.27,0m0.79,-0.74l0.63,0q0.12,0 0.21,0.02q0.09,0.03 0.15,0.07q0.06,0.05 0.09,0.12q0.03,0.06 0.03,0.14q0,0.09 -0.04,0.17q-0.05,0.07 -0.14,0.12l0.23,0.45l-0.48,0l-0.17,-0.4l-0.09,0l0,0.4l-0.42,0l0,-1.09m0.45,0.56q0.05,0 0.09,-0.02q0.04,-0.01 0.07,-0.04q0.03,-0.02 0.04,-0.06q0.02,-0.04 0.02,-0.08q0,-0.05 -0.02,-0.08q-0.01,-0.04 -0.04,-0.07q-0.03,-0.02 -0.07,-0.04q-0.04,-0.01 -0.09,-0.01l-0.03,0l0,0.4l0.03,0" fill="#202020" fill-rule="nonzero" id="svg_22"/>
   </g>
   <g id="svg_23"/>
  </g>
 </g>
</svg>